<svg xmlns="http://www.w3.org/2000/svg" xmlns:xlink="http://www.w3.org/1999/xlink" zoomAndPan="magnify" preserveAspectRatio="xMidYMid meet" version="1.0" viewBox="132.12 179.34 347.24 347.24"><defs><clipPath id="cd5b29e35f"><path d="M 132.132812 179.351562 L 479.363281 179.351562 L 479.363281 526.582031 L 132.132812 526.582031 Z M 132.132812 179.351562 " clip-rule="nonzero"/></clipPath></defs><path fill="#2e5d7b" d="M 317.605469 309.105469 C 329.980469 309.859375 342.125 315.878906 349.03125 326.121094 C 355.097656 335.117188 349.90625 346.539062 350.167969 357.375 C 350.4375 368.730469 357.492188 381.121094 350.5625 390.160156 C 343.339844 399.574219 329.457031 398.667969 317.605469 399.832031 C 303.726562 401.191406 288.519531 405.746094 277.445312 397.332031 C 265.550781 388.304688 260.746094 372.21875 261.675781 357.378906 C 262.558594 343.292969 271.433594 331.355469 282.152344 322.101562 C 292.042969 313.570312 304.539062 308.324219 317.605469 309.105469 Z M 317.605469 309.105469 " fill-opacity="1" fill-rule="evenodd"/><path fill="#0098ff" d="M 323.652344 338.628906 C 315.910156 338.628906 309.628906 332.347656 309.628906 324.601562 C 309.628906 316.859375 315.910156 310.578125 323.652344 310.578125 C 331.398438 310.578125 337.675781 316.859375 337.675781 324.601562 C 337.675781 332.347656 331.398438 338.628906 323.652344 338.628906 Z M 292.8125 387.734375 C 288.890625 387.734375 285.710938 384.554688 285.710938 380.632812 C 285.710938 376.710938 288.890625 373.53125 292.8125 373.53125 C 296.734375 373.53125 299.914062 376.710938 299.914062 380.632812 C 299.914062 384.554688 296.734375 387.734375 292.8125 387.734375 Z M 305.734375 279.953125 C 265.417969 279.953125 232.738281 312.636719 232.738281 352.953125 C 232.738281 393.269531 265.417969 425.949219 305.734375 425.949219 C 346.050781 425.949219 378.730469 393.269531 378.730469 352.953125 C 378.730469 312.636719 346.050781 279.953125 305.734375 279.953125 " fill-opacity="1" fill-rule="nonzero"/><path fill="#ffffff" d="M 292.8125 387.734375 C 288.890625 387.734375 285.710938 384.554688 285.710938 380.632812 C 285.710938 376.710938 288.890625 373.53125 292.8125 373.53125 C 296.734375 373.53125 299.914062 376.710938 299.914062 380.632812 C 299.914062 384.554688 296.734375 387.734375 292.8125 387.734375 Z M 336.082031 318.109375 C 337.097656 320.050781 337.675781 322.257812 337.675781 324.601562 C 337.675781 332.347656 331.398438 338.628906 323.652344 338.628906 C 315.910156 338.628906 309.628906 332.347656 309.628906 324.601562 C 309.628906 316.859375 315.910156 310.578125 323.652344 310.578125 C 323.84375 310.578125 324.03125 310.585938 324.21875 310.59375 C 318.558594 308.117188 312.308594 306.746094 305.734375 306.746094 C 280.214844 306.746094 259.527344 327.429688 259.527344 352.953125 C 259.527344 378.472656 280.214844 399.160156 305.734375 399.160156 C 331.253906 399.160156 351.941406 378.472656 351.941406 352.953125 C 351.941406 339.046875 345.800781 326.578125 336.082031 318.109375 " fill-opacity="1" fill-rule="nonzero"/><g clip-path="url(#cd5b29e35f)"><path fill="#0098ff" d="M 305.734375 436.792969 C 259.429688 436.792969 221.890625 399.257812 221.890625 352.953125 C 221.890625 306.648438 259.429688 269.109375 305.734375 269.109375 C 352.039062 269.109375 389.578125 306.648438 389.578125 352.953125 C 389.578125 399.257812 352.039062 436.792969 305.734375 436.792969 Z M 425.007812 334.152344 L 465.230469 334.152344 C 466.4375 336.632812 468.972656 338.347656 471.914062 338.347656 C 476.019531 338.347656 479.347656 335.019531 479.347656 330.914062 C 479.347656 326.8125 476.019531 323.480469 471.914062 323.480469 C 468.972656 323.480469 466.4375 325.199219 465.230469 327.679688 L 422.328125 327.679688 L 407.632812 342.371094 L 397.230469 342.371094 C 396.910156 339.582031 396.472656 336.832031 395.914062 334.128906 L 400.710938 334.128906 L 421.382812 313.457031 L 440.507812 313.457031 C 441.710938 315.9375 444.25 317.648438 447.1875 317.648438 C 451.292969 317.648438 454.621094 314.320312 454.621094 310.21875 C 454.621094 306.113281 451.292969 302.785156 447.1875 302.785156 C 444.25 302.785156 441.710938 304.5 440.507812 306.980469 L 418.699219 306.980469 L 398.027344 327.652344 L 394.320312 327.652344 C 392.664062 321.847656 390.453125 316.273438 387.75 310.996094 L 408.535156 290.210938 L 433.8125 290.210938 L 458.605469 265.417969 C 459.371094 265.683594 460.1875 265.832031 461.042969 265.832031 C 465.148438 265.832031 468.472656 262.507812 468.472656 258.402344 C 468.472656 254.300781 465.148438 250.972656 461.042969 250.972656 C 456.9375 250.972656 453.613281 254.300781 453.613281 258.402344 C 453.613281 259.257812 453.761719 260.074219 454.027344 260.839844 L 431.128906 283.738281 L 405.855469 283.738281 L 384.464844 305.128906 C 376.789062 292.515625 366.167969 281.898438 353.558594 274.222656 L 374.949219 252.828125 L 374.949219 227.554688 L 397.847656 204.660156 C 398.613281 204.921875 399.429688 205.074219 400.28125 205.074219 C 404.386719 205.074219 407.714844 201.75 407.714844 197.644531 C 407.714844 193.539062 404.386719 190.210938 400.28125 190.210938 C 396.179688 190.210938 392.851562 193.539062 392.851562 197.644531 C 392.851562 198.5 393.003906 199.316406 393.269531 200.082031 L 368.476562 224.875 L 368.476562 250.148438 L 347.6875 270.933594 C 342.410156 268.234375 336.839844 266.019531 331.03125 264.367188 L 331.03125 260.660156 L 351.707031 239.988281 L 351.707031 218.179688 C 354.1875 216.976562 355.902344 214.4375 355.902344 211.496094 C 355.902344 207.390625 352.574219 204.0625 348.46875 204.0625 C 344.367188 204.0625 341.039062 207.390625 341.039062 211.496094 C 341.039062 214.4375 342.75 216.976562 345.230469 218.179688 L 345.230469 237.304688 L 324.558594 257.980469 L 324.558594 262.773438 C 321.851562 262.210938 319.101562 261.773438 316.316406 261.457031 L 316.316406 251.054688 L 331.007812 236.363281 L 331.007812 193.453125 C 333.488281 192.25 335.203125 189.714844 335.203125 186.773438 C 335.203125 182.667969 331.875 179.339844 327.773438 179.339844 C 323.667969 179.339844 320.339844 182.667969 320.339844 186.773438 C 320.339844 189.714844 322.050781 192.25 324.535156 193.453125 L 324.535156 233.679688 L 309.84375 248.371094 L 309.84375 260.941406 C 308.480469 260.882812 307.109375 260.847656 305.734375 260.847656 C 304.359375 260.847656 302.992188 260.882812 301.628906 260.941406 L 301.628906 248.371094 L 286.9375 233.679688 L 286.9375 227.097656 C 289.414062 225.894531 291.128906 223.355469 291.128906 220.417969 C 291.128906 216.308594 287.800781 212.984375 283.699219 212.984375 C 279.59375 212.984375 276.265625 216.308594 276.265625 220.417969 C 276.265625 223.355469 277.980469 225.894531 280.460938 227.097656 L 280.460938 236.363281 L 295.152344 251.054688 L 295.152344 261.457031 C 292.367188 261.773438 289.617188 262.210938 286.910156 262.773438 L 286.910156 257.980469 L 266.238281 237.304688 L 266.238281 200.3125 C 268.71875 199.105469 270.433594 196.570312 270.433594 193.628906 C 270.433594 189.523438 267.105469 186.199219 263 186.199219 C 258.894531 186.199219 255.566406 189.523438 255.566406 193.628906 C 255.566406 196.570312 257.28125 199.105469 259.761719 200.3125 L 259.761719 239.988281 L 280.4375 260.660156 L 280.4375 264.367188 C 274.628906 266.019531 269.058594 268.234375 263.78125 270.933594 L 242.996094 250.148438 L 242.996094 224.875 L 218.199219 200.082031 C 218.464844 199.316406 218.617188 198.5 218.617188 197.644531 C 218.617188 193.539062 215.289062 190.210938 211.1875 190.210938 C 207.082031 190.210938 203.753906 193.539062 203.753906 197.644531 C 203.753906 201.75 207.082031 205.074219 211.1875 205.074219 C 212.039062 205.074219 212.859375 204.921875 213.621094 204.660156 L 236.519531 227.554688 L 236.519531 252.828125 L 257.910156 274.222656 C 245.300781 281.898438 234.679688 292.515625 227.003906 305.128906 L 205.613281 283.738281 L 180.339844 283.738281 L 157.441406 260.839844 C 157.707031 260.074219 157.859375 259.257812 157.859375 258.402344 C 157.859375 254.300781 154.53125 250.972656 150.425781 250.972656 C 146.320312 250.972656 142.992188 254.300781 142.992188 258.402344 C 142.992188 262.507812 146.320312 265.832031 150.425781 265.832031 C 151.28125 265.832031 152.097656 265.683594 152.863281 265.417969 L 177.65625 290.210938 L 202.933594 290.210938 L 223.71875 310.996094 C 221.015625 316.273438 218.804688 321.847656 217.148438 327.652344 L 213.441406 327.652344 L 192.769531 306.980469 L 170.960938 306.980469 C 169.757812 304.5 167.222656 302.785156 164.28125 302.785156 C 160.175781 302.785156 156.847656 306.113281 156.847656 310.21875 C 156.847656 314.320312 160.175781 317.648438 164.28125 317.648438 C 167.222656 317.648438 169.757812 315.9375 170.960938 313.457031 L 190.085938 313.457031 L 210.761719 334.128906 L 215.558594 334.128906 C 214.996094 336.832031 214.558594 339.582031 214.238281 342.371094 L 203.839844 342.371094 L 189.144531 327.679688 L 146.238281 327.679688 C 145.03125 325.199219 142.496094 323.480469 139.554688 323.480469 C 135.449219 323.480469 132.121094 326.8125 132.121094 330.914062 C 132.121094 335.019531 135.449219 338.347656 139.554688 338.347656 C 142.496094 338.347656 145.03125 336.632812 146.234375 334.152344 L 186.460938 334.152344 L 201.15625 348.84375 L 213.726562 348.84375 C 213.667969 350.207031 213.628906 351.574219 213.628906 352.953125 C 213.628906 354.328125 213.667969 355.695312 213.726562 357.058594 L 201.15625 357.058594 L 186.460938 371.75 L 179.878906 371.75 C 178.675781 369.269531 176.140625 367.554688 173.199219 367.554688 C 169.09375 367.554688 165.765625 370.886719 165.765625 374.988281 C 165.765625 379.09375 169.09375 382.421875 173.199219 382.421875 C 176.140625 382.421875 178.675781 380.707031 179.878906 378.226562 L 189.144531 378.226562 L 203.839844 363.535156 L 214.238281 363.535156 C 214.558594 366.320312 214.996094 369.070312 215.558594 371.777344 L 210.761719 371.777344 L 190.085938 392.449219 L 153.09375 392.449219 C 151.890625 389.96875 149.355469 388.253906 146.410156 388.253906 C 142.308594 388.253906 138.980469 391.582031 138.980469 395.6875 C 138.980469 399.789062 142.308594 403.121094 146.410156 403.121094 C 149.355469 403.121094 151.890625 401.402344 153.09375 398.921875 L 192.769531 398.921875 L 213.441406 378.25 L 217.148438 378.25 C 218.804688 384.058594 221.015625 389.628906 223.71875 394.90625 L 202.933594 415.695312 L 177.65625 415.695312 L 152.863281 440.484375 C 152.097656 440.21875 151.28125 440.070312 150.425781 440.070312 C 146.320312 440.070312 142.992188 443.394531 142.992188 447.5 C 142.992188 451.605469 146.320312 454.933594 150.425781 454.933594 C 154.53125 454.933594 157.859375 451.605469 157.859375 447.5 C 157.859375 446.644531 157.707031 445.828125 157.441406 445.066406 L 180.339844 422.167969 L 205.613281 422.167969 L 227.003906 400.777344 C 234.679688 413.386719 245.300781 424.003906 257.910156 431.679688 L 236.519531 453.074219 L 236.519531 478.347656 L 213.621094 501.242188 C 212.859375 500.980469 212.039062 500.828125 211.1875 500.828125 C 207.082031 500.828125 203.753906 504.15625 203.753906 508.261719 C 203.753906 512.363281 207.082031 515.691406 211.1875 515.691406 C 215.289062 515.691406 218.617188 512.363281 218.617188 508.261719 C 218.617188 507.402344 218.464844 506.585938 218.199219 505.824219 L 242.996094 481.03125 L 242.996094 455.757812 L 263.78125 434.96875 C 269.058594 437.671875 274.628906 439.882812 280.4375 441.539062 L 280.4375 445.246094 L 259.761719 465.917969 L 259.761719 505.59375 C 257.28125 506.796875 255.566406 509.332031 255.566406 512.277344 C 255.566406 516.378906 258.894531 519.707031 263 519.707031 C 267.105469 519.707031 270.433594 516.378906 270.433594 512.277344 C 270.433594 509.332031 268.71875 506.796875 266.238281 505.59375 L 266.238281 468.601562 L 286.910156 447.929688 L 286.910156 443.128906 C 289.617188 443.6875 292.367188 444.128906 295.152344 444.449219 L 295.152344 454.847656 L 280.460938 469.542969 L 280.460938 478.808594 C 277.980469 480.011719 276.265625 482.546875 276.265625 485.488281 C 276.265625 489.59375 279.59375 492.921875 283.699219 492.921875 C 287.800781 492.921875 291.128906 489.59375 291.128906 485.488281 C 291.128906 482.546875 289.414062 480.011719 286.9375 478.808594 L 286.9375 472.222656 L 301.628906 457.53125 L 301.628906 444.960938 C 302.992188 445.019531 304.359375 445.054688 305.734375 445.054688 C 307.109375 445.054688 308.480469 445.019531 309.84375 444.960938 L 309.84375 457.53125 L 324.535156 472.222656 L 324.535156 512.449219 C 322.050781 513.652344 320.339844 516.1875 320.339844 519.132812 C 320.339844 523.238281 323.667969 526.566406 327.773438 526.566406 C 331.875 526.566406 335.203125 523.238281 335.203125 519.132812 C 335.203125 516.1875 333.488281 513.652344 331.007812 512.449219 L 331.007812 469.542969 L 316.316406 454.847656 L 316.316406 444.449219 C 319.101562 444.128906 321.851562 443.6875 324.558594 443.128906 L 324.558594 447.929688 L 345.230469 468.601562 L 345.230469 487.722656 C 342.75 488.929688 341.039062 491.464844 341.039062 494.40625 C 341.039062 498.511719 344.367188 501.839844 348.46875 501.839844 C 352.574219 501.839844 355.902344 498.511719 355.902344 494.40625 C 355.902344 491.464844 354.1875 488.929688 351.707031 487.722656 L 351.707031 465.917969 L 331.03125 445.246094 L 331.03125 441.539062 C 336.839844 439.882812 342.410156 437.671875 347.6875 434.96875 L 368.476562 455.757812 L 368.476562 481.03125 L 393.269531 505.824219 C 393.003906 506.585938 392.851562 507.402344 392.851562 508.261719 C 392.851562 512.363281 396.179688 515.691406 400.28125 515.691406 C 404.386719 515.691406 407.714844 512.363281 407.714844 508.261719 C 407.714844 504.15625 404.386719 500.828125 400.28125 500.828125 C 399.429688 500.828125 398.613281 500.980469 397.847656 501.242188 L 374.949219 478.347656 L 374.949219 453.074219 L 353.558594 431.683594 C 366.167969 424.003906 376.789062 413.386719 384.464844 400.777344 L 405.855469 422.167969 L 431.128906 422.167969 L 454.027344 445.066406 C 453.761719 445.828125 453.613281 446.644531 453.613281 447.5 C 453.613281 451.605469 456.9375 454.933594 461.042969 454.933594 C 465.148438 454.933594 468.472656 451.605469 468.472656 447.5 C 468.472656 443.394531 465.148438 440.070312 461.042969 440.070312 C 460.1875 440.070312 459.371094 440.21875 458.605469 440.484375 L 433.8125 415.695312 L 408.535156 415.695312 L 387.75 394.90625 C 390.453125 389.628906 392.664062 384.058594 394.320312 378.25 L 398.027344 378.25 L 418.699219 398.921875 L 458.375 398.921875 C 459.582031 401.402344 462.113281 403.121094 465.058594 403.121094 C 469.164062 403.121094 472.488281 399.789062 472.488281 395.6875 C 472.488281 391.582031 469.164062 388.253906 465.058594 388.253906 C 462.113281 388.253906 459.582031 389.96875 458.375 392.449219 L 421.382812 392.449219 L 400.710938 371.777344 L 395.914062 371.777344 C 396.472656 369.070312 396.910156 366.320312 397.230469 363.535156 L 407.632812 363.535156 L 422.328125 378.226562 L 431.589844 378.226562 C 432.792969 380.707031 435.328125 382.421875 438.269531 382.421875 C 442.375 382.421875 445.703125 379.09375 445.703125 374.988281 C 445.703125 370.886719 442.375 367.554688 438.269531 367.554688 C 435.328125 367.554688 432.792969 369.269531 431.589844 371.75 L 425.007812 371.75 L 410.3125 357.058594 L 397.742188 357.058594 C 397.804688 355.695312 397.839844 354.328125 397.839844 352.953125 C 397.839844 351.574219 397.804688 350.207031 397.742188 348.84375 L 410.3125 348.84375 L 425.007812 334.152344 " fill-opacity="1" fill-rule="nonzero"/></g></svg>